{"title":"Mayak aka The Lighthouse (Mariya Saakyan, 2006)","uid":7220139,"size":734754135,"categoryP":"video","categoryS":"movies","magnet":"?xt=urn:btih:82497945f7c71c2ea2defb1435fcdd184e58a50d&amp;dn=Mayak+aka+The+Lighthouse+%28Mariya+Saakyan%2C+2006%29&amp;tr=udp%3A%2F%2Ftracker.openbittorrent.com%3A80&amp;tr=udp%3A%2F%2Fopen.demonii.com%3A1337&amp;tr=udp%3A%2F%2Ftracker.coppersurfer.tk%3A6969&amp;tr=udp%3A%2F%2Fexodus.desync.com%3A6969","seeders":0,"leechers":1,"uploader":"rpessoa","files":3,"time":1335504190,"description":"Mayak aka The Lighthouse (Mariya Saakyan, 2006)\n &lt;a href=&quot;\nhttp://www.imdb.com/title/tt1020889/&quot; rel=&quot;nofollow&quot; target=&quot;_NEW&quot;&gt;\nhttp://www.imdb.com/title/tt1020889/&lt;/a&gt;\n\nMaria Saakyan's elegiac, semi-autobiographical slice-of-life drama The Lighthouse (2006) unfolds in the very early '90s, against the backdrop of the Caucasus wars that plagued Georgia, Armenia, and Azerbaijan. As the scope of this mass-scaled conflict extends itself to one woman's small village, she is forced to drop everything, move to Moscow, and start over from scratch -- thus bidding farewell to her hometown and way of life, perhaps indefinitely. (allrovi.com)\n\n\n-------------------------\n\n\nFormat : AVI \nFormat/Info : Audio Video Interleave \nFile size : 701 MiB \nDuration : 1h 14mn \nOverall bit rate : 1 315 Kbps \nWriting application : VirtualDubMod 1.5.10.2 (build 2540/release) \nWriting library : VirtualDubMod build 2540/release \n\nVideo \nID : 0 \nFormat : MPEG-4 Visual \nFormat profile : Simple@L3 \nFormat settings, BVOP : No \nFormat settings, QPel : No \nFormat settings, GMC : No warppoints \nFormat settings, Matrix : Default (H.263) \nCodec ID : XVID \nCodec ID/Hint : XviD \nDuration : 1h 14mn \nBit rate : 1 113 Kbps \nWidth : 624 pixels \nHeight : 352 pixels \nDisplay aspect ratio : 16:9 \nFrame rate : 25.000 fps \nColor space : YUV \nChroma subsampling : 4:2:0 \nBit depth : 8 bits \nScan type : Progressive \nBits/(Pixel*Frame) : 0.203 \nStream size : 593 MiB (85%) \nWriting library : XviD 1.2.1 (UTC 2008-12-04) \n\nAudio \nID : 1 \nFormat : AC-3 \nFormat/Info : Audio Coding 3 \nMode extension : CM (complete main) \nCodec ID : 2000 \nDuration : 1h 14mn \nBit rate mode : Constant \nBit rate : 192 Kbps \nChannel(s) : 2 channels \nChannel positions : Front: L R \nSampling rate : 48.0 KHz \nBit depth : 16 bits \nStream size : 102 MiB (15%) \nAlignment : Split accross interleaves \nInterleave, duration : 40 ms (1.00 video frame) \nInterleave, preload duration : 500 ms","torrent":{"xt":"urn:btih:82497945f7c71c2ea2defb1435fcdd184e58a50d","amp;dn":"Mayak+aka+The+Lighthouse+%28Mariya+Saakyan%2C+2006%29","amp;tr":["udp%3A%2F%2Ftracker.openbittorrent.com%3A80","udp%3A%2F%2Fopen.demonii.com%3A1337","udp%3A%2F%2Ftracker.coppersurfer.tk%3A6969","udp%3A%2F%2Fexodus.desync.com%3A6969"],"infoHash":"82497945f7c71c2ea2defb1435fcdd184e58a50d","infoHashBuffer":{"type":"Buffer","data":[130,73,121,69,247,199,28,46,162,222,251,20,53,252,221,24,78,88,165,13]},"announce":[],"urlList":[]}}